<svg width="18" height="19" viewBox="0 0 18 19" fill="none" xmlns="http://www.w3.org/2000/svg">
<path d="M2.60015 1.41406C1.36275 1.41406 0.553711 2.2266 0.553711 3.29458C0.553711 4.33897 1.33865 5.17468 2.55267 5.17468H2.57616C3.83776 5.17468 4.62291 4.33897 4.62291 3.29458C4.59932 2.2266 3.83776 1.41406 2.60015 1.41406Z" fill="white"/>
<path d="M0.767517 6.66064H4.38497V17.5439H0.767517V6.66064Z" fill="white"/>
<path d="M13.2641 6.40527C11.3127 6.40527 10.0041 8.23903 10.0041 8.23903V6.66071H6.38654V17.544H10.0039V11.4663C10.0039 11.141 10.0275 10.8161 10.1231 10.5834C10.3846 9.93374 10.9797 9.26065 11.9791 9.26065C13.288 9.26065 13.8116 10.2587 13.8116 11.7218V17.544H17.4287V11.3037C17.4287 7.96083 15.644 6.40527 13.2641 6.40527Z" fill="white"/>
</svg>
