<svg width="24" height="23" viewBox="0 0 24 23" fill="none" xmlns="http://www.w3.org/2000/svg">
<path d="M22.3257 6.11064C22.0772 5.18689 21.3489 4.45871 20.4253 4.20997C18.738 3.74829 11.9885 3.74829 11.9885 3.74829C11.9885 3.74829 5.2393 3.74829 3.55197 4.19246C2.64612 4.44094 1.90004 5.18702 1.65156 6.11064C1.20752 7.79784 1.20752 11.2969 1.20752 11.2969C1.20752 11.2969 1.20752 14.8135 1.65156 16.4831C1.9003 17.4067 2.62835 18.1349 3.5521 18.3837C5.25707 18.8455 11.9888 18.8455 11.9888 18.8455C11.9888 18.8455 18.738 18.8455 20.4253 18.4013C21.3491 18.1527 22.0772 17.4245 22.326 16.5009C22.7699 14.8135 22.7699 11.3146 22.7699 11.3146C22.7699 11.3146 22.7877 7.79784 22.3257 6.11064ZM9.83963 14.5294V8.06434L15.4521 11.2969L9.83963 14.5294Z" fill="white"/>
</svg>
